<svg viewBox="0 0 265 200" fill="none" xmlns="http://www.w3.org/2000/svg">
<path fill-rule="evenodd" clip-rule="evenodd" d="M264.151 88.9943H197.799L255.261 59.2239L243.247 40.5526L185.783 70.3238L218.96 18.7575L198.151 7.9766L164.976 59.5403V0H140.948V59.5416L107.771 7.9766L86.9619 18.7575L120.139 70.3238L62.6754 40.5526L50.6614 59.2239L108.123 88.9943H41.7729V110.557H108.127L50.6614 140.329L62.6754 159L120.139 129.229L86.9619 180.796L107.771 191.576L140.948 140.011V199.553H164.976V140.013L198.151 191.576L218.96 180.796L185.783 129.229L243.247 159L255.261 140.329L197.795 110.557H264.151V88.9943Z" fill="#C8B0FF"/>
<path fill-rule="evenodd" clip-rule="evenodd" d="M59.2475 181.582H71.9376V161.97H59.2475V181.582ZM152.258 144.689L96.4697 101.033L42.6294 145.364V199.435H152.286L152.258 144.689Z" fill="#1E4B52"/>
<path fill-rule="evenodd" clip-rule="evenodd" d="M0 92.4313C0 74.2018 16.8963 59.5562 37.2442 60.7005C54.993 61.6985 69.3061 75.0192 70.0029 91.1537C70.232 96.4632 69.0259 101.498 66.7089 105.962C64.5008 110.217 64.4502 115.176 66.6704 119.426C68.8249 123.55 70.0306 128.162 70.0306 133.03C70.0306 148.106 58.4704 160.722 42.9628 163.992V199.553H27.0673V163.992C11.5597 160.722 0 148.106 0 133.03C0 128.163 1.20521 123.551 3.35921 119.427C5.56576 115.203 5.56576 110.259 3.35921 106.034C1.20521 101.911 0 97.2991 0 92.4313Z" fill="#C3D600"/>
</svg>